<svg xmlns="http://www.w3.org/2000/svg" viewBox="0 0 64 64" fill="none">
  <defs>
    <linearGradient id="achievements-bg" x1="0" y1="0" x2="64" y2="64" gradientUnits="userSpaceOnUse">
      <stop offset="0%" stop-color="#F8D46A"/>
      <stop offset="48%" stop-color="#F59E0B"/>
      <stop offset="100%" stop-color="#7C3AED"/>
    </linearGradient>
    <linearGradient id="achievements-shine" x1="32" y1="0" x2="32" y2="64" gradientUnits="userSpaceOnUse">
      <stop offset="0%" stop-color="#FFFFFF" stop-opacity="0.34"/>
      <stop offset="55%" stop-color="#FFFFFF" stop-opacity="0"/>
    </linearGradient>
    <linearGradient id="trophy-gold" x1="18" y1="14" x2="46" y2="50" gradientUnits="userSpaceOnUse">
      <stop offset="0%" stop-color="#FFF7C2"/>
      <stop offset="48%" stop-color="#FFE66D"/>
      <stop offset="100%" stop-color="#D97706"/>
    </linearGradient>
  </defs>

  <rect width="64" height="64" rx="14" fill="url(#achievements-bg)"/>
  <rect width="64" height="64" rx="14" fill="url(#achievements-shine)"/>

  <path d="M20 19h24v9c0 8-5 14-12 14S20 36 20 28v-9Z" fill="url(#trophy-gold)"/>
  <path d="M20 22h-5v5c0 6 4 10 10 10v-4c-4 0-6-2-6-6v-1h1v-4Z" fill="#FFE9A3" fill-opacity="0.95"/>
  <path d="M44 22h5v5c0 6-4 10-10 10v-4c4 0 6-2 6-6v-1h-1v-4Z" fill="#FFE9A3" fill-opacity="0.95"/>

  <path d="M29 41h6v6h-6v-6Z" fill="#FFE66D"/>
  <path d="M23 47h18l3 5H20l3-5Z" fill="#FFE9A3"/>

  <path d="M32 21l3 6 6 1-4.5 4.5 1.1 6.2L32 35.7l-5.6 3 1.1-6.2L23 28l6-1 3-6Z" fill="#7C3AED" fill-opacity="0.9"/>
  <path d="M32 24l2 4 4.4.8-3.2 3.1.8 4.4-4-2.1-4 2.1.8-4.4-3.2-3.1L30 28l2-4Z" fill="#FFFFFF"/>
</svg>
