<svg xmlns="http://www.w3.org/2000/svg" viewBox="0 0 128 128">
  <defs><linearGradient id="g" x1="0" y1="0" x2="1" y2="1"><stop stop-color="#334155"/><stop offset="1" stop-color="#020617"/></linearGradient></defs>
  <rect width="128" height="128" rx="28" fill="url(#g)"/>
  <path fill="#fff" d="M64 24C41.9 24 24 42.3 24 64.8c0 18 11.5 33.2 27.4 38.6 2 .4 2.7-.9 2.7-1.9v-7.2c-11.1 2.5-13.5-4.8-13.5-4.8-1.8-4.8-4.5-6.1-4.5-6.1-3.7-2.6.3-2.5.3-2.5 4.1.3 6.2 4.3 6.2 4.3 3.6 6.3 9.4 4.5 11.7 3.4.4-2.7 1.4-4.5 2.6-5.5-8.9-1-18.2-4.5-18.2-20.1 0-4.4 1.5-8.1 4.1-10.9-.4-1-1.8-5.2.4-10.8 0 0 3.4-1.1 11 4.2 3.2-.9 6.5-1.3 9.9-1.3 3.4 0 6.7.5 9.9 1.3 7.6-5.3 11-4.2 11-4.2 2.2 5.6.8 9.8.4 10.8 2.6 2.8 4.1 6.5 4.1 10.9 0 15.6-9.3 19.1-18.2 20.1 1.5 1.3 2.8 3.9 2.8 7.8v11.6c0 1 .7 2.3 2.8 1.9C92.5 98 104 82.8 104 64.8 104 42.3 86.1 24 64 24z"/>
</svg>
